<?xml version="1.0" encoding="utf-8"?>
<!-- Generator: Adobe Illustrator 22.1.0, SVG Export Plug-In . SVG Version: 6.00 Build 0)  -->
<svg version="1.1" xmlns="http://www.w3.org/2000/svg" xmlns:xlink="http://www.w3.org/1999/xlink" x="0px" y="0px"
	 viewBox="0 0 300 150" style="enable-background:new 0 0 300 150;" xml:space="preserve">
<g id="Layer_2">
	<path style="fill:#FFFFFF;" d="M85.6,51.4L104,95.5V51.4H85.6z M54.2,51.4v44.1l18.4-44.1H54.2z M71,86.6h8.6l3.5,8.9h7.7
		L79.1,67.6L71,86.6z"/>
	<path style="fill:#FFFFFF;" d="M130.3,51.2l-10,44.2h6l2.6-12.2h9.2l2.6,12.2h6.1l-9.4-44.2C137.5,51.2,130.3,51.2,130.3,51.2z
		 M129.7,78.3l2.1-10.6c0.6-2.8,1.2-6.9,1.7-10.1h0.3c0.5,3.2,1.1,7.1,1.6,10.1l2,10.6H129.7z M169.9,50.1h-6.2v16.6h-0.1
		c-1.1-2.4-3.2-3.6-5.7-3.6c-5.1,0-9.8,5.3-9.8,16.6c0,9.9,3.6,16.3,9.5,16.3c3.2,0,5.6-2.2,6.7-4.4h0.2l0.4,3.9h5.3
		c-0.1-2.2-0.3-5.8-0.3-8.2L169.9,50.1L169.9,50.1z M163.7,84.3c0,0.7-0.1,1.5-0.2,2c-1.1,3.8-2.9,4.5-4.3,4.5c-3.3,0-5-4.6-5-11.2
		c0-5.9,1.3-11.3,5.2-11.3c2.2,0,3.9,2.5,4.2,5.4c0.1,0.7,0.1,1.4,0.1,2C163.7,75.7,163.7,84.3,163.7,84.3z M184.9,63
		c-5.8,0-11.3,4.9-11.3,16.5c0,11,4.6,16.4,11,16.4h0.1c4.9,0,11.1-3.9,11.1-16.5C195.8,68.7,191.2,63,184.9,63z M184.8,91.1
		L184.8,91.1c-4.1,0-5-6.3-5-11.6c0-4.8,0.8-11.6,4.9-11.6c3.9,0,4.8,6.8,4.8,11.6C189.5,84.4,188.6,91.1,184.8,91.1z M212.5,63
		c-2.8,0-5.1,1.2-6.7,4.1h-0.1V50.1h-6.2v37.2c0,2.4-0.1,6-0.3,8.2h5.3l0.3-4h0.3c1.4,2.8,3.2,4.5,6.3,4.5c5.3,0,9.9-5.6,9.9-17
		C221.3,69.2,217.9,63,212.5,63z M210,90.8c-1.2,0-3.2-0.8-4.1-4.7c-0.2-0.5-0.3-1.2-0.3-2v-8.9c0-0.7,0.1-1.5,0.2-2.2
		c0.5-2.3,2.1-4.7,4.1-4.7c3.7,0,5.1,4.9,5.1,11C215.1,86,213.7,90.8,210,90.8z M235.8,63c-6.6,0-11.4,6.4-11.4,16.9
		c0,9.8,4.2,15.9,12.2,15.9c2.8,0,5.7-0.5,7.6-1.5l-0.9-4.5c-1.4,0.7-3.3,1.2-5.5,1.2c-3.7,0-7.3-2-7.4-10.2l15,0.1
		c0.1-0.9,0.1-1.8,0.1-3.4C245.5,69.4,242.5,63,235.8,63z M230.5,76.4c0.2-4,1.6-8.7,4.9-8.7c2.4,0,4.4,3,4.3,8.7H230.5z
		 M245.3,64.4L245.3,64.4c0.2-0.1,0.3-0.2,0.3-0.4c0-0.2-0.1-0.3-0.1-0.3c-0.1-0.1-0.3-0.1-0.5-0.1c-0.2,0-0.3,0-0.4,0v1.6h0.3v-0.7
		h0.2c0.2,0,0.3,0.1,0.3,0.3c0,0.2,0.1,0.4,0.1,0.4h0.3c0-0.1-0.1-0.1-0.1-0.4C245.5,64.6,245.4,64.5,245.3,64.4z M244.9,64.3h-0.2
		v-0.5c0,0,0.1,0,0.2,0c0.3,0,0.4,0.1,0.4,0.3C245.3,64.3,245.1,64.3,244.9,64.3z M245,63L245,63c-0.8,0-1.4,0.6-1.4,1.4
		c0,0.8,0.6,1.4,1.4,1.4c0.8,0,1.4-0.6,1.4-1.4C246.4,63.6,245.8,63,245,63z M245,65.6c-0.6,0-1.1-0.5-1.1-1.2
		c0-0.7,0.5-1.2,1.1-1.2h0c0.6,0,1.1,0.5,1.1,1.2C246.1,65.1,245.6,65.6,245,65.6z M106.4,51.4L106.4,51.4c-0.8,0-1.4,0.6-1.4,1.4
		c0,0.8,0.6,1.4,1.4,1.4c0.8,0,1.4-0.6,1.4-1.4C107.8,52,107.2,51.4,106.4,51.4z M106.4,54c-0.6,0-1.1-0.5-1.1-1.2
		c0-0.7,0.5-1.2,1.1-1.2h0c0.6,0,1.1,0.5,1.1,1.2C107.6,53.4,107.1,54,106.4,54z M106.7,52.8L106.7,52.8c0.2-0.1,0.3-0.2,0.3-0.4
		c0-0.2-0.1-0.3-0.1-0.3c-0.1-0.1-0.3-0.1-0.5-0.1c-0.2,0-0.3,0-0.4,0v1.6h0.3v-0.7h0.2c0.2,0,0.3,0.1,0.3,0.3
		c0,0.2,0.1,0.4,0.1,0.4h0.3c0-0.1-0.1-0.1-0.1-0.4C106.9,53,106.8,52.8,106.7,52.8z M106.3,52.7h-0.2v-0.5c0,0,0.1,0,0.2,0
		c0.3,0,0.4,0.1,0.4,0.3C106.7,52.6,106.6,52.7,106.3,52.7z"/>
</g>
<g id="guilds">
</g>
</svg>
