<?xml version="1.0" encoding="utf-8"?>
<!-- Generator: Adobe Illustrator 22.1.0, SVG Export Plug-In . SVG Version: 6.00 Build 0)  -->
<svg version="1.1" xmlns="http://www.w3.org/2000/svg" xmlns:xlink="http://www.w3.org/1999/xlink" x="0px" y="0px"
	 viewBox="0 0 300 150" style="enable-background:new 0 0 300 150;" xml:space="preserve">
<g id="Layer_2">
	<g id="XMLID_1_">
		<path id="XMLID_10_" style="fill:#FFFFFF;" d="M215.9,57.8c-3.7-3.7-9-6-15-6c-6,0-11.3,2.3-15.1,6c-2.3,2.3-4.1,5.2-5,8.4
			c-1-3.1-2.7-5.9-5-8.1c-3.7-3.6-9-5.7-15.1-5.7h-15.6v23.6c-1-2.1-2.8-3.7-5.1-4.7c2.2-1.7,4-4.2,3.9-8v-0.1c0-3.2-1.3-6-3.7-7.9
			c-2.4-1.9-5.7-2.9-9.7-2.9h-18.4v23.6c-1-2.1-2.8-3.7-5.1-4.7c2.2-1.7,4-4.2,3.9-8v-0.1c0-3.2-1.3-6-3.7-7.9
			c-2.4-1.9-5.7-2.9-9.7-2.9H79.3v39.9h18.9c4.4,0,8.1-0.9,10.8-2.8c1.4-1,2.5-2.3,3.3-3.9v6.6h18.9c4.4,0,8.1-0.9,10.8-2.8
			c1.4-1,2.5-2.3,3.3-3.9v6.6h15.6c6.1,0,11.4-2.2,15.1-5.8c2.3-2.2,4-4.9,4.9-8c1,3.2,2.7,6.1,5,8.4c3.7,3.7,9,6,15,6h0
			c6,0,11.3-2.3,15.1-6c3.7-3.7,6-8.9,6-14.5v-0.1C221.8,66.7,219.6,61.5,215.9,57.8z M89.2,61.6h7.3c1.6,0,2.8,0.3,3.5,0.8
			c0.7,0.5,1,1.1,1,2.2v0.1c0,1.2-0.4,1.8-1.2,2.3c-0.8,0.5-2.2,0.8-3.9,0.8h-6.8V61.6z M103.1,80c0,1.2-0.4,1.8-1.2,2.4
			c-0.8,0.5-2.1,0.9-3.8,0.9h-9v-6.6h8.7c2,0,3.4,0.4,4.2,0.9c0.8,0.6,1.1,1.2,1.1,2.3V80z M122.1,61.6h7.3c1.6,0,2.8,0.3,3.5,0.9
			c0.7,0.5,1,1.1,1,2.2v0.1c0,1.2-0.4,1.8-1.2,2.3c-0.8,0.5-2.2,0.8-3.9,0.8h-6.8V61.6z M136,80c0,1.2-0.4,1.8-1.2,2.4
			c-0.8,0.5-2.1,0.9-3.8,0.9h-9v-6.6h8.7c2,0,3.4,0.4,4.2,0.9c0.8,0.6,1.1,1.2,1.1,2.3V80z M171.2,72.5c-0.1,6.3-4.1,10.4-10.5,10.5
			h-5.5V61.8h5.5c6.4,0,10.4,4.3,10.5,10.6V72.5z M211.3,72.5c0,6.1-4.3,10.9-10.4,10.9c-6.2,0-10.5-5-10.5-11.1v-0.1
			c0-6.1,4.3-10.9,10.4-10.9c6.2,0,10.5,5,10.5,11.1L211.3,72.5L211.3,72.5z"/>
	</g>
</g>
<g id="guilds">
</g>
</svg>
