<?xml version="1.0" encoding="utf-8"?>
<!-- Generator: Adobe Illustrator 22.1.0, SVG Export Plug-In . SVG Version: 6.00 Build 0)  -->
<svg version="1.1" xmlns="http://www.w3.org/2000/svg" xmlns:xlink="http://www.w3.org/1999/xlink" x="0px" y="0px"
	 viewBox="0 0 300 150" style="enable-background:new 0 0 300 150;" xml:space="preserve">
<g id="Layer_2">
	<path style="fill:#FFFFFF;" d="M103.7,56.8c0,0-4.4,2.2-9.6,2.2s-9.6-2.2-9.6-2.2c-1.4,2.5-1.6,5.3-1.7,8.1
		c0,8.8,4.6,16.9,11.3,20.5c6.7-3.6,11.4-11.7,11.3-20.5C105.4,62,105.1,59.3,103.7,56.8 M94.1,83c-5.7-2.8-11.7-14.7-8.3-23.2
		c0,0,3.6,1.4,8.3,1.4c4.7,0,8.3-1.4,8.3-1.4C105.8,68.3,99.8,80.1,94.1,83"/>
	<path style="fill:#FFFFFF;" d="M94.1,62.2c-4.1,0-7.6-1.1-7.6-1.1c-2.5,8.4,2.8,17.7,7.6,20.7c4.8-3.1,10.1-12.3,7.6-20.7
		C101.7,61.1,98.2,62.2,94.1,62.2 M93.6,79.3c-0.2,0.1,0.2,0.7-0.2,0.6c-0.3,0-0.2-0.8-0.2-1.2c0.1-0.3,0.3-0.5,0.6-0.6v0.9
		C93.7,79.1,93.7,79.2,93.6,79.3 M94.8,77.6c0,1.3-0.1,2.4-0.1,2.4c0,0.2-0.1,0.4-0.4,0.4c-0.3,0-0.4-0.3-0.4-0.3s0-1.4-0.1-3.1
		c0,0,0-0.1,0.1-0.1c0.2,0.1,0.6,0.3,0.7,0.4C94.9,77.4,94.8,77.6,94.8,77.6 M96,77.6c-0.1,0.4-0.5,0.7-0.9,0.8v-0.8
		c0-0.1,0.2-0.4-0.4-0.6c-0.7-0.5-2.1-0.5-2.2-1.6c0-0.5,0.1-0.9,0.5-1.1c0.2-0.1,0.4-0.1,0.5-0.2l0,0.9c0,0.1-0.1,0.3,0,0.4
		c0.3,0.2,1.5,0.5,2.2,1.3C96,76.9,96,77.2,96,77.6 M94.9,75.5c0,0,0,0.1-0.1,0.1c0,0-0.6-0.3-0.7-0.3c-0.2,0-0.1-0.1-0.1-0.2v-1.5
		c0,0,0.5,0.1,0.9,0.1c0.1,0,0.1,0,0.1,0C94.9,74.3,94.9,74.8,94.9,75.5 M96.6,73.7C96.5,75,95.1,75,95.1,75l0-1.2
		c0-0.1,0-0.3,0-0.3s0-0.2-0.9-0.3c-1.3,0-2.2-0.5-2.2-1.6c0-1.1,0.8-1.4,0.8-1.4s0.5,1.1,0.5,1.2c0,0.1,0,0.1,0,0.3
		c0.1,0.1,0.7,0.2,1.2,0.2C95.2,72.1,96.8,72.4,96.6,73.7 M93.5,69.3c0.7,0,1.4,0.1,1.4,0.1s0.1,0.8,0,2.2c0,0.1-0.1,0.1-0.1,0.1
		l-1.1-0.1c0,0-0.5-1.5-0.6-1.8C93,69.7,93.5,69.3,93.5,69.3 M95.3,71.4l0-1.4c0,0,0.3-0.2,0.3-0.5c0-0.2-0.1-0.6-1.7-0.6
		c-3,0-3.8-1.9-3.8-2.8c0-0.9,0.7-2.1,2.2-2.1c1.6,0,2.1,1.1,2.1,1.1s-0.2,0.1-0.5,0.1c-0.2,0-0.6,0-0.8,0c-0.2,0-0.4,0.1-0.4,0.1
		s0.2,0.2,0.5,0.3c0.3,0.1,0.5,0.3,0.5,0.3s-0.1,0.1-0.5,0.1s-1.1-0.3-1.3-0.3c-0.3,0-0.4,0.2-0.4,0.5c0,1,2.2,1.2,2.6,1.2
		c0.5,0,3.1,0.1,3.1,2.1C97.2,71.4,95.3,71.4,95.3,71.4 M97.4,65.1c-0.6,0.7-1.5,1.4-2.1,2.2h-0.1L93.5,67l0-0.7
		c0.3-0.1,0.4-0.1,0.6-0.4c0-0.1-0.1-0.2-0.2-0.3c0.4,0,0.7,0.3,1.1,0.3c0,0,0-0.1,0-0.1c-0.3-0.3-0.7-0.2-1.1-0.3
		c0.2-0.1,0.5,0,0.7-0.2c0.1-0.1,0-0.1,0-0.3c-0.2-0.3-0.5-0.8-1-1l0-0.5c0-0.2,0.1-0.3,0.3-0.2l1.2,0.5c0.3,0.1,0.1,1,0.3,1.4
		c0.7-0.2,1.2-1.3,1.9-0.7C97.4,64.6,97.5,64.8,97.4,65.1"/>
	<path style="fill:#FFFFFF;" d="M99.2,84.2c0-0.3,0.1-0.6,0.4-0.9c0.2-0.2,0.5-0.4,0.8-0.4c0.3,0,0.6,0.1,0.8,0.4
		c0.2,0.2,0.4,0.5,0.4,0.9c0,0.3-0.1,0.6-0.4,0.9c-0.2,0.2-0.5,0.4-0.8,0.4c-0.3,0-0.6-0.1-0.8-0.4C99.3,84.8,99.2,84.5,99.2,84.2
		 M101.4,84.2c0-0.3-0.1-0.5-0.3-0.7c-0.2-0.2-0.5-0.3-0.7-0.3s-0.5,0.1-0.7,0.3c-0.2,0.2-0.3,0.5-0.3,0.7c0,0.3,0.1,0.5,0.3,0.7
		c0.2,0.2,0.5,0.3,0.7,0.3s0.5-0.1,0.7-0.3C101.3,84.7,101.4,84.5,101.4,84.2 M99.9,83.6h0.5c0.1,0,0.2,0,0.3,0.1
		c0.1,0,0.1,0.1,0.1,0.2c0,0.2-0.1,0.3-0.3,0.4c0.1,0,0.1,0.1,0.2,0.2c0,0,0.1,0.2,0.2,0.4h-0.2c-0.1-0.2-0.2-0.4-0.3-0.5
		c0,0-0.2-0.1-0.3-0.1H100v0.5h-0.1L99.9,83.6 M100.1,84.2h0.2c0.1,0,0.2,0,0.3,0c0,0,0.1-0.1,0.1-0.2c0-0.1,0-0.1-0.1-0.2
		c0,0-0.1,0-0.3,0h-0.2V84.2L100.1,84.2z"/>
	<path style="fill:#FFFFFF;" d="M92.7,64.6c0,0.1-0.2,0.2-0.3,0.3c-0.3,0-0.3-0.3-0.5-0.3C92,64.4,92.4,64.5,92.7,64.6L92.7,64.6"/>
	<path style="fill:#FFFFFF;" d="M14.2,79.5h-2.1v-23h2.1v9.3c1.8-2.2,4.1-3.3,6.6-3.3c4.9,0,8.5,4,8.5,8.7c0,4.7-3.8,8.7-8.6,8.7
		c-2.7,0-4.9-1.2-6.6-3.5L14.2,79.5 M27.2,71.2c0-3.6-2.8-6.7-6.5-6.7c-3.4,0-6.6,2.5-6.6,6.7c0,3.8,2.8,6.8,6.6,6.8
		C24.5,77.9,27.2,74.7,27.2,71.2"/>
	<rect x="32.8" y="56.5" style="fill:#FFFFFF;" width="2.1" height="23"/>
	<path style="fill:#FFFFFF;" d="M51.4,62.9h2.2v8.6c0,5.6-2.5,8.4-7.3,8.4s-7.3-2.8-7.3-8.4v-8.6h2.2V71c0,1.7,0,3.2,0.5,4.2
		c0.8,1.7,2.5,2.7,4.6,2.7c1.5,0,2.9-0.5,3.8-1.5c1.3-1.4,1.3-3,1.3-5.4L51.4,62.9"/>
	<path style="fill:#FFFFFF;" d="M59.2,71.4c0.1,3.8,2.7,6.6,6.3,6.6c3.5,0,5.1-2,6.4-4l1.8,0.9c-1.7,3.3-4.3,5-7.9,5
		c-5.5,0-8.7-4.2-8.7-8.7c0-4.5,3.3-8.8,8.5-8.8c4.7,0,8.5,3.4,8.6,8.9L59.2,71.4 M71.8,69.5c-0.9-3.4-3.3-5-6.2-5
		c-3,0-5.2,1.6-6.1,5H71.8z"/>
	<path style="fill:#FFFFFF;" d="M131.2,71.2c0,4.7-3.7,8.7-8.7,8.7c-5,0-8.7-4-8.7-8.7c0-4.8,3.7-8.8,8.7-8.8
		C127.4,62.5,131.2,66.5,131.2,71.2 M116,71.3c0,3.6,2.7,6.6,6.5,6.6c3.7,0,6.5-3,6.5-6.6c0-3.7-2.9-6.7-6.5-6.7
		C118.9,64.5,116,67.6,116,71.3"/>
	<path style="fill:#FFFFFF;" d="M135.6,60.3c0-2.7,0.6-4.3,3.4-4.3c0.9,0,1.7,0.2,2.4,0.5v2.1c-0.5-0.2-1.1-0.5-2-0.5
		c-1.7,0-1.7,1.1-1.7,2.6v2.2h3.5v1.9h-3.5v14.7h-2.1V64.7h-2.2v-1.9h2.2L135.6,60.3"/>
	<path style="fill:#FFFFFF;" d="M168.6,76.1c-1.6,2.5-4.4,3.8-7.8,3.8c-5.5,0-9.1-3.9-9.1-8.6c0-4.9,3.8-8.9,9.3-8.9
		c3.2,0,6.1,1.3,7.6,3.9l-1.7,1.1c-1.5-1.9-3.5-2.9-6-2.9c-4.2,0-7,3.1-7,6.6c0,3.6,2.7,6.8,7.1,6.8c2.4,0,4.4-1,6-2.9L168.6,76.1"
		/>
	<path style="fill:#FFFFFF;" d="M185.4,62.9h2.1v16.6h-2.1v-2.8c-1.8,2.2-4.1,3.3-6.7,3.3c-4.9,0-8.5-4-8.5-8.7
		c0-4.7,3.8-8.7,8.6-8.7c2.7,0,5,1.1,6.6,3.5V62.9 M172.4,71.2c0,3.6,2.8,6.7,6.5,6.7c3.4,0,6.6-2.6,6.6-6.7c0-3.8-2.9-6.7-6.6-6.7
		C175.2,64.5,172.4,67.6,172.4,71.2"/>
	<rect x="192.2" y="56.5" style="fill:#FFFFFF;" width="2.1" height="23"/>
	<path style="fill:#FFFFFF;" d="M202,57.8c0,1-0.8,1.8-1.8,1.8s-1.7-0.8-1.7-1.8c0-1,0.8-1.7,1.7-1.7C201.2,56,202,56.8,202,57.8
		 M199.2,62.9h2.1v16.6h-2.1V62.9z"/>
	<path style="fill:#FFFFFF;" d="M207.3,60.3c0-2.7,0.6-4.3,3.4-4.3c0.9,0,1.7,0.2,2.4,0.5v2.1c-0.5-0.2-1.1-0.5-2-0.5
		c-1.7,0-1.7,1.1-1.7,2.6v2.2h3.5v1.9h-3.5v14.7h-2.1V64.7h-2.2v-1.9h2.2V60.3"/>
	<path style="fill:#FFFFFF;" d="M231.5,71.2c0,4.7-3.7,8.7-8.7,8.7c-5,0-8.7-4-8.7-8.7c0-4.8,3.7-8.8,8.7-8.8S231.5,66.5,231.5,71.2
		 M216.4,71.3c0,3.6,2.7,6.6,6.5,6.6c3.7,0,6.5-3,6.5-6.6c0-3.7-2.9-6.7-6.5-6.7C219.3,64.5,216.4,67.6,216.4,71.3"/>
	<path style="fill:#FFFFFF;" d="M236.7,65.3c1.2-1.8,2.6-2.8,4.3-2.8c1,0,1.5,0.3,1.9,0.5l-1.1,1.8c-0.2-0.1-0.6-0.3-1.1-0.3
		c-1.6,0-3,1.3-3.6,3.6c-0.3,1.1-0.4,2.8-0.4,5v6.3h-2.2V62.9h2.2L236.7,65.3"/>
	<path style="fill:#FFFFFF;" d="M247.5,65.9c1.7-2.2,3.8-3.4,6.2-3.4c3.6,0,6.2,2.5,6.2,7.7v9.3h-2.1v-9c0-3.9-1.2-6-4.4-6
		c-1.8,0-3.3,0.8-4.4,2.2c-1.2,1.6-1.4,3.3-1.4,5.9v7h-2.1V63h2.1L247.5,65.9"/>
	<path style="fill:#FFFFFF;" d="M266.9,57.8c0,1-0.8,1.8-1.8,1.8c-1,0-1.7-0.8-1.7-1.8c0-1,0.8-1.7,1.7-1.7
		C266.1,56,266.9,56.8,266.9,57.8 M264.1,62.9h2.1v16.6h-2.1V62.9z"/>
	<path style="fill:#FFFFFF;" d="M284.8,62.9h2.1v16.6h-2.1v-2.8c-1.8,2.2-4.1,3.3-6.7,3.3c-4.9,0-8.5-4-8.5-8.7
		c0-4.7,3.8-8.7,8.6-8.7c2.7,0,5,1.1,6.6,3.5L284.8,62.9 M271.8,71.2c0,3.6,2.8,6.7,6.5,6.7c3.4,0,6.6-2.6,6.6-6.7
		c0-3.8-2.9-6.7-6.6-6.7C274.5,64.5,271.8,67.6,271.8,71.2"/>
</g>
<g id="guilds">
</g>
</svg>
