<?xml version="1.0" encoding="utf-8"?>
<!-- Generator: Adobe Illustrator 22.1.0, SVG Export Plug-In . SVG Version: 6.00 Build 0)  -->
<svg version="1.1" xmlns="http://www.w3.org/2000/svg" xmlns:xlink="http://www.w3.org/1999/xlink" x="0px" y="0px"
	 viewBox="0 0 300 150" style="enable-background:new 0 0 300 150;" xml:space="preserve">
<g id="Layer_2">
	<g>
		<path style="fill:none;" d="M195.8,92.4c-3.7,0-6.5,2.9-6.5,6.6c0,3.6,2.8,6.6,6.5,6.6c3.7,0,6.5-2.9,6.5-6.6
			C202.3,95.4,199.6,92.4,195.8,92.4z"/>
		<rect x="118.7" y="86.5" style="fill:#FFFFFF;" width="6.3" height="25"/>
		<path style="fill:#FFFFFF;" d="M156.9,99c0,8.1,6.2,13,13.3,13c2.8,0,5-0.7,5.8-0.9v-6.7c-0.3,0.2-2.3,1.3-5.3,1.3
			c-4.2,0-6.9-3-6.9-6.7c0-3.8,2.8-6.7,6.9-6.7c3,0,5,1.2,5.3,1.3v-6.7c-0.6-0.2-2.8-0.9-5.8-0.9C162.5,86,156.9,91.5,156.9,99z"/>
		<path style="fill:#FFFFFF;" d="M91,99c0,8.1,6.2,13,13.3,13c2.8,0,5-0.7,5.8-0.9v-6.7c-0.3,0.2-2.3,1.3-5.3,1.3
			c-4.2,0-6.9-3-6.9-6.7c0-3.8,2.8-6.7,6.9-6.7c3,0,5.1,1.2,5.3,1.3v-6.7c-0.6-0.2-2.8-0.9-5.8-0.9C96.6,86,91,91.5,91,99z"/>
		<path style="fill:#FFFFFF;" d="M195.8,86c-7.7,0-13.2,5.8-13.2,13c0,7.2,5.5,13,13.2,13s13.2-5.8,13.2-13
			C209,91.8,203.5,86,195.8,86z M195.8,105.6c-3.7,0-6.5-2.9-6.5-6.6c0-3.6,2.8-6.6,6.5-6.6c3.7,0,6.5,2.9,6.5,6.6
			C202.3,102.6,199.6,105.6,195.8,105.6z"/>
		<path style="fill:#FFFFFF;" d="M144.8,96.4l-1.7-0.6c-1-0.3-2.9-0.9-2.9-2.4c0-1.2,1.4-2,3.9-2c2.2,0,4.8,0.7,4.9,0.8v-5.3
			c-0.2,0-3.1-0.8-6.2-0.8c-5.8,0-9.3,3.1-9.3,7.8c0,4.1,2.9,6.2,6.4,7.3c0.4,0.1,1,0.3,1.3,0.4c1.6,0.5,2.8,1.2,2.8,2.5
			c0,1.4-1.4,2.3-4.6,2.3c-2.8,0-5.4-0.8-6-0.9v5.8c0.3,0.1,3.5,0.7,6.8,0.7c4.8,0,10.4-2.1,10.4-8.4
			C150.7,100.5,148.9,97.7,144.8,96.4z"/>
		<path style="fill:#FFFFFF;" d="M81.1,56.5c-1.7,0-3.1,1.4-3.1,3.1v6.6c0,1.7,1.4,3.1,3.1,3.1s3.1-1.4,3.1-3.1v-6.6
			C84.3,57.9,82.9,56.5,81.1,56.5z"/>
		<path style="fill:#FFFFFF;" d="M98.4,69.3c1.7,0,3.1-1.4,3.1-3.1V51c0-1.7-1.4-3.1-3.1-3.1c-1.7,0-3.1,1.4-3.1,3.1v15.2
			C95.2,67.9,96.6,69.3,98.4,69.3z"/>
		<path style="fill:#FFFFFF;" d="M115.6,36.1c-1.7,0-3.1,1.4-3.1,3.1v33.2c0,1.7,1.4,3.1,3.1,3.1c1.7,0,3.1-1.4,3.1-3.1V39.2
			C118.7,37.5,117.3,36.1,115.6,36.1z"/>
		<path style="fill:#FFFFFF;" d="M135.9,66.2V51c0-1.7-1.4-3.1-3.1-3.1c-1.7,0-3.1,1.4-3.1,3.1v15.2c0,1.7,1.4,3.1,3.1,3.1
			C134.5,69.3,135.9,67.9,135.9,66.2z"/>
		<path style="fill:#FFFFFF;" d="M150,56.5C150,56.5,150,56.5,150,56.5c0.7,0,1.3,0.2,1.9,0.6C151.3,56.7,150.7,56.5,150,56.5z"/>
		<path style="fill:#FFFFFF;" d="M150,69.3c0.7,0,1.3-0.2,1.9-0.6C151.3,69.1,150.7,69.3,150,69.3C150,69.3,150,69.3,150,69.3z"/>
		<path style="fill:#FFFFFF;" d="M146.9,66.2v-6.6c0-1.7,1.4-3.1,3.1-3.1c0,0,0,0,0,0c-1.7,0-3.1,1.4-3.1,3.1L146.9,66.2
			c0,1.7,1.4,3.1,3.1,3.1c0,0,0,0,0,0C148.3,69.3,146.9,67.9,146.9,66.2z"/>
		<path style="fill:#FFFFFF;" d="M151.9,57.1c0.8,0.6,1.3,1.5,1.3,2.5v6.6c0,1-0.5,1.9-1.3,2.5c0.8-0.6,1.3-1.5,1.3-2.5v-6.6
			C153.1,58.6,152.6,57.7,151.9,57.1z"/>
		<path style="fill:#FFFFFF;" d="M153.1,66.2v-6.6c0-1-0.5-1.9-1.3-2.5c-0.5-0.4-1.2-0.6-1.9-0.6c-1.7,0-3.1,1.4-3.1,3.1v6.6
			c0,1.7,1.4,3.1,3.1,3.1c0.7,0,1.3-0.2,1.9-0.6C152.6,68.1,153.1,67.2,153.1,66.2z"/>
		<path style="fill:#FFFFFF;" d="M167.2,69.3c1.7,0,3.1-1.4,3.1-3.1V51c0-1.7-1.4-3.1-3.1-3.1c-1.7,0-3.1,1.4-3.1,3.1v15.2
			C164.1,67.9,165.5,69.3,167.2,69.3z"/>
		<path style="fill:#FFFFFF;" d="M187.6,72.4V39.2c0-1.7-1.4-3.1-3.1-3.1c-1.7,0-3.1,1.4-3.1,3.1v33.2c0,1.7,1.4,3.1,3.1,3.1
			C186.2,75.5,187.6,74.1,187.6,72.4z"/>
		<path style="fill:#FFFFFF;" d="M201.7,69.3c1.7,0,3.1-1.4,3.1-3.1V51c0-1.7-1.4-3.1-3.1-3.1c-1.7,0-3.1,1.4-3.1,3.1v15.2
			C198.5,67.9,199.9,69.3,201.7,69.3z"/>
		<path style="fill:#FFFFFF;" d="M218.9,69.3c1.7,0,3.1-1.4,3.1-3.1v-6.6c0-1.7-1.4-3.1-3.1-3.1c-1.7,0-3.1,1.4-3.1,3.1v6.6
			C215.7,67.9,217.1,69.3,218.9,69.3z"/>
		<polygon style="fill:#FFFFFF;" points="215.7,108.6 216.8,108.6 216.8,111.5 217.3,111.5 217.3,108.6 218.4,108.6 218.4,108.2 
			215.7,108.2 		"/>
		<polygon style="fill:#FFFFFF;" points="221.3,108.2 220.3,110.9 220.3,110.9 219.3,108.2 218.6,108.2 218.6,111.5 219.1,111.5 
			219.1,108.8 219.1,108.8 220.1,111.5 220.5,111.5 221.5,108.8 221.5,108.8 221.5,111.5 222,111.5 222,108.2 		"/>
	</g>
</g>
<g id="guilds">
</g>
</svg>
