<?xml version="1.0" encoding="utf-8"?>
<!-- Generator: Adobe Illustrator 22.1.0, SVG Export Plug-In . SVG Version: 6.00 Build 0)  -->
<svg version="1.1" xmlns="http://www.w3.org/2000/svg" xmlns:xlink="http://www.w3.org/1999/xlink" x="0px" y="0px"
	 viewBox="0 0 300 150" style="enable-background:new 0 0 300 150;" xml:space="preserve">
<g id="Layer_2">
	<g>
		<path style="fill:#FFFFFF;" d="M93.2,72c0-12.2-7.5-19.7-19.7-19.7c-13,0-21.4,8.1-21.4,20.6c0,12.6,7.4,20.1,19.7,20.1
			C85,93,93.2,84.9,93.2,72L93.2,72z M72.5,90.3c-8.8,0-14.3-6.8-14.3-17.7c0-10.9,5.5-17.6,14.3-17.6c9.1,0,14.5,6.6,14.5,17.7
			C87.1,83.7,81.7,90.3,72.5,90.3"/>
		<path style="fill:#FFFFFF;" d="M160.3,54.8l8.4,1.5l0.9,25.6l-23.5-28.8h-11.9v1.6l6.4,1.5L140.4,89l-5.7,1.4
			c-1.6-0.5-4.2-1.1-7.5-5.3c0,0-8.8-10.9-9.9-12.3c3.5-1,9.1-3.5,9.1-10.2c0-4.3-2.3-9.5-13.6-9.5H95.3v1.6l6.3,1.5V89l-6.3,1.5
			v1.6h17.4v-1.6l-5.6-1.5V56c1.7-0.3,3.3-0.4,4.5-0.4c6.2,0,9.2,2.3,9.2,7.1c0,7.4-6,8.5-8.4,8.8c-0.8,0.1-1.8,0.2-2.7,0.2v1.6
			l2.2,0.7l9.2,11.9c3.1,4,5.3,6.3,15.7,6.3H152v-1.7l-7.6-1.5l-1-30.8l28.1,34.7h0.7l0.5-36.7l5.1-1.5v-1.6h-17.6"/>
		<polyline style="fill:#FFFFFF;" points="221,90.5 213.4,89 212.4,58.2 240.5,92.9 241.3,92.9 241.7,56.2 246.9,54.8 246.9,53.1 
			229.3,53.1 229.3,54.8 237.7,56.3 238.7,81.9 215.1,53.1 203.3,53.1 203.3,54.8 209.6,56.2 209.4,89 203.3,90.5 203.3,92.1 
			221,92.1 		"/>
		<path style="fill:#FFFFFF;" d="M44,81c-1.2,4-3,9.2-12,9.2c-8.5,0-14.2-7.2-14.3-17.4C17.6,62,23,55,32.4,55
			c7.9,0,10.3,4.8,11.1,10h2v-9.8c-2.2-1.3-8.2-3-13.2-3c-12.4,0-20.8,8.4-20.7,20.8c0.2,12,7.6,19.9,19.9,19.9
			c6.9,0,10.8-1.8,14.4-3.7c0,0,0.9-10.4,0.9-10.4h-2"/>
		<path style="fill:#FFFFFF;" d="M284,77l5-1.5v-1.6h-17.8v1.6l7.5,1.5v10.1c-2.6,2.1-5.5,3.3-10.1,3.1c-8.1-0.3-13.9-7.2-13.9-17.4
			c0-11.3,5.3-17.9,14.9-17.9c8.5,0,10.8,5.5,11.7,10h1.8v-9.6c-2.5-1.4-8-3-14.3-3c-12.4,0-20.3,8.1-20.2,20.8
			c0.1,11.8,7.8,19.7,19.6,19.9c8.2,0.1,12.4-2.2,15.8-4.1C284,88.9,284,77,284,77"/>
		<polyline style="fill:#FFFFFF;" points="199.6,90.5 193.3,89 193.3,56.2 199.6,54.8 199.6,53.1 181.5,53.1 181.5,54.8 187.9,56.2 
			187.9,89 181.5,90.5 181.5,92.1 199.6,92.1 		"/>
	</g>
</g>
<g id="guilds">
</g>
</svg>
