<?xml version="1.0" encoding="utf-8"?>
<!-- Generator: Adobe Illustrator 22.1.0, SVG Export Plug-In . SVG Version: 6.00 Build 0)  -->
<svg version="1.1" xmlns="http://www.w3.org/2000/svg" xmlns:xlink="http://www.w3.org/1999/xlink" x="0px" y="0px"
	 viewBox="0 0 300 150" style="enable-background:new 0 0 300 150;" xml:space="preserve">
<g id="Layer_2">
	<g>
		<path style="fill:#FFFFFF;" d="M262.9,86.2c0,1.5-1.1,2.6-2.6,2.6c-1.5,0-2.6-1.1-2.6-2.6c0-1.5,1.1-2.6,2.6-2.6
			C261.8,83.6,262.9,84.7,262.9,86.2 M257.2,86.2c0,1.8,1.5,3.1,3.2,3.1c1.7,0,3.2-1.3,3.2-3.1c0-1.8-1.5-3.1-3.2-3.1
			C258.6,83.1,257.2,84.4,257.2,86.2 M259.7,84.8h0.7c0.6,0,0.8,0.2,0.8,0.5c0,0.4-0.2,0.6-0.9,0.6h-0.7V84.8z M259.7,86.4h0.6
			l1,1.6h0.6l-1-1.6c0.5-0.1,0.9-0.3,0.9-1c0-0.7-0.4-1-1.3-1h-1.4V88h0.6L259.7,86.4L259.7,86.4z"/>
		<path style="fill:#FFFFFF;" d="M256.3,56.3l-8.2,14.9l-8-14.9h-7.5c1.4,2.5,11.2,20.9,11.2,20.9s0,10.5,0,12.1h8
			c0-1.6,0-12.1,0-12.1s10.2-18.4,11.6-21L256.3,56.3L256.3,56.3z"/>
		<path style="fill:#FFFFFF;" d="M223.1,71.8c5.9-0.5,7.1-3.4,7.1-7.5c0-3.6-1.5-5.5-3.2-6.5c-1.4-0.9-3.1-1.5-6.6-1.5H205v33h15.6
			c4.8,0,6.8-0.9,7.7-1.6c1.6-1.1,3.7-3.4,3.7-7.2C232,76.1,230.5,71.7,223.1,71.8 M219.1,84.5h-6.7v0V61v0h7.3c2.5,0,4,2,4,4.7
			c0,4.1-2,4.3-7.7,4.5V74c5.1,0,9.2-0.3,9.2,5C225.3,81.6,223.6,84.5,219.1,84.5"/>
		<polygon style="fill:#FFFFFF;" points="187.1,56.3 179.6,56.3 179.6,89.3 200.9,89.3 200.9,83.8 187.1,83.8 		"/>
		<path style="fill:#FFFFFF;" d="M166.7,77.7c0,5.9-2,7.2-7.8,7.2c-5.8,0-7.8-1.3-7.8-7.2v-9.9c0-5.7,2-6.9,7.8-6.9
			c5.7,0,7.8,1.2,7.8,6.9V77.7z M170,58.1c-2.3-1.6-6.1-2.4-11.1-2.4c-4.9,0-8.4,0.7-11.1,2.4c-2.8,1.8-4.2,4.9-4.2,9.7v10.4
			c0,4.8,1.4,8,4.1,9.7c2.2,1.5,5.9,2.3,11.1,2.3c5.2,0,8.9-0.8,11.1-2.2c2.8-1.7,4.2-5.1,4.2-9.7V67.8
			C174.2,63.2,172.8,60,170,58.1"/>
		<path style="fill:#FFFFFF;" d="M131.5,77c0,5.8-3.1,7.2-5.7,7.2h-9.1V61.1h9.1c2.6,0,5.7,1.5,5.7,6.8C131.5,68,131.5,77,131.5,77z
			 M125.7,56.3h-16.5v33h17.7c8.7,0,12-3.6,12-13.1v-7.3C138.9,59.8,135.2,56.3,125.7,56.3"/>
		<path style="fill:#FFFFFF;" d="M36,94H97V51.6H36V94z M50.2,88.5h-7V57.1h7c7.2,0,13.3,7.2,13.3,15.6
			C63.4,81.5,57.4,88.5,50.2,88.5 M89.9,88.5h-7c-7.2,0-13.3-7-13.3-15.8c0-8.5,6-15.6,13.3-15.6h7V88.5z"/>
	</g>
</g>
<g id="guilds">
</g>
</svg>
