<?xml version="1.0" encoding="utf-8"?>
<!-- Generator: Adobe Illustrator 22.1.0, SVG Export Plug-In . SVG Version: 6.00 Build 0)  -->
<svg version="1.1" id="Layer_1" xmlns="http://www.w3.org/2000/svg" xmlns:xlink="http://www.w3.org/1999/xlink" x="0px" y="0px"
	 viewBox="0 0 300 150" style="enable-background:new 0 0 300 150;" xml:space="preserve">
<g id="XMLID_49_">
	<path id="XMLID_48_" style="fill:#FFFFFF;" d="M59,57.8c-2.6,0-3.4,1.2-3.4,3.8v4.3h7l-0.7,7h-6.3V94h-8.4V72.9h-5.7v-7h5.7v-4.2
		c0-7,2.8-10.7,10.6-10.7c1.7,0,3.7,0.1,4.9,0.3v6.5"/>
	<path id="XMLID_66_" style="fill:#FFFFFF;" d="M63.2,79.1c0-7.8,3.7-13.7,11.4-13.7c4.2,0,6.8,2.2,8,4.9v-4.3h8.1V94h-8.1v-4.2
		c-1.2,2.7-3.8,4.8-8,4.8c-7.7,0-11.4-5.9-11.4-13.7 M71.7,80.9c0,4.2,1.5,7,5.4,7c3.5,0,5.2-2.5,5.2-6.5v-2.8c0-4-1.8-6.5-5.2-6.5
		c-3.9,0-5.4,2.8-5.4,7V80.9z"/>
	<path id="XMLID_45_" style="fill:#FFFFFF;" d="M108.3,65.3c3.3,0,6.4,0.7,8.1,1.9l-1.9,6c-1.3-0.6-3.4-1.3-5.6-1.3
		c-4.6,0-6.5,2.7-6.5,7.2v1.6c0,4.5,2,7.2,6.5,7.2c2.2,0,4.3-0.6,5.6-1.3l1.9,6c-1.7,1.2-4.8,1.9-8.1,1.9c-9.9,0-14.4-5.4-14.4-14
		v-1.3C93.9,70.7,98.4,65.3,108.3,65.3"/>
	<path id="XMLID_62_" style="fill:#FFFFFF;" d="M117.4,81v-2.5c0-8,4.5-13.2,13.7-13.2c8.7,0,12.5,5.3,12.5,13.1v4.5h-17.7
		c0.2,3.8,1.9,5.5,6.5,5.5c3.2,0,6.5-0.6,8.9-1.7l1.5,5.8c-2.2,1.2-6.8,2.1-10.8,2.1C121.4,94.6,117.4,89.2,117.4,81 M125.9,77.3
		H136v-0.7c0-3.1-1.2-5.5-4.9-5.5C127.3,71.2,125.9,73.6,125.9,77.3"/>
	<path id="XMLID_59_" style="fill:#FFFFFF;" d="M174.8,80.8c0,7.8-3.7,13.7-11.5,13.7c-4.2,0-7.1-2.1-8.3-4.8V94h-8V51.8l8.4-0.8
		v18.7c1.2-2.5,3.9-4.5,7.8-4.5c7.7,0,11.5,5.9,11.5,13.7 M166.4,78.9c0-4-1.5-6.9-5.6-6.9c-3.5,0-5.3,2.5-5.3,6.5v2.9
		c0,4,1.9,6.5,5.3,6.5c4,0,5.6-2.9,5.6-6.9V78.9z"/>
	<path id="XMLID_56_" style="fill:#FFFFFF;" d="M177.6,80.6v-1.4c0-8.1,4.6-13.9,13.9-13.9c9.3,0,13.9,5.8,13.9,13.9v1.4
		c0,8.1-4.6,13.9-13.9,13.9C182.2,94.5,177.6,88.7,177.6,80.6 M196.9,78.6c0-3.7-1.5-6.7-5.4-6.7c-3.9,0-5.4,2.9-5.4,6.7v2.6
		c0,3.7,1.5,6.7,5.4,6.7c3.9,0,5.4-2.9,5.4-6.7V78.6z"/>
	<path id="XMLID_53_" style="fill:#FFFFFF;" d="M208.1,80.6v-1.4c0-8.1,4.6-13.9,13.9-13.9c9.3,0,13.9,5.8,13.9,13.9v1.4
		c0,8.1-4.6,13.9-13.9,13.9C212.7,94.5,208.1,88.7,208.1,80.6 M227.4,78.6c0-3.7-1.5-6.7-5.4-6.7c-3.9,0-5.4,2.9-5.4,6.7v2.6
		c0,3.7,1.5,6.7,5.4,6.7c3.9,0,5.4-2.9,5.4-6.7V78.6z"/>
	<polyline id="XMLID_32_" style="fill:#FFFFFF;" points="247.4,79.3 255.7,65.9 264.7,65.9 255.9,79.8 265,94 256.1,94 247.4,80.2 
		247.4,94 239,94 239,51.8 247.4,51.1 	"/>
</g>
</svg>
