<?xml version="1.0" encoding="utf-8"?>
<!-- Generator: Adobe Illustrator 22.1.0, SVG Export Plug-In . SVG Version: 6.00 Build 0)  -->
<svg version="1.1" xmlns="http://www.w3.org/2000/svg" xmlns:xlink="http://www.w3.org/1999/xlink" x="0px" y="0px"
	 viewBox="0 0 300 150" style="enable-background:new 0 0 300 150;" xml:space="preserve">
<g id="Layer_2">
	<g>
		<defs>
			<path id="SVGID_1_" d="M179.4,58.7h10.3c2.7,0,3.9,2.2,3.9,4.4c0,1.2-0.4,2.3-1,3.1c-0.7,0.9-1.7,1.4-3,1.4h-10.2V58.7z
				 M171.7,51.3V94h15.5l6.3-7.5l-14.2,0V75.2h11.8c3.4,0,5.1,2.6,5.1,5.6v2.5l6.6-7.9l0.2-0.2c-1-1.8-2.9-3.8-4.7-4.8
				c3.2-3,4-7.4,2.2-11.8c-1.9-4.6-5.8-7.3-10.8-7.3H171.7z M97.7,51.3V94h7.7V76.5h16.4v-7.3h-16.4V58.8h18.5v-7.5H97.7z
				 M132.1,57.5c-3.9,4.2-6.1,9.6-6.1,15.3c0,5.6,2.2,11,6.1,15.2c3.9,4.1,9.2,6.4,14.8,6.4c9.8,0,17.8-6.4,20.2-16.3l0.3-1.1h-7.6
				l-0.2,0.6c-1.9,5.7-6.8,9.2-12.7,9.2c-3.5,0-6.9-1.5-9.4-4.1c-2.6-2.7-4-6.2-4-9.8c0-3.8,1.4-7.2,4-9.9c2.5-2.7,5.9-4.1,9.4-4.1
				c5.9,0,10.5,3.2,12.4,8.7l0.2,0.6h7.6l-0.3-1.1c-2.4-9.6-10.3-15.8-20-15.8C141.4,51.1,136,53.4,132.1,57.5"/>
		</defs>
		<use xlink:href="#SVGID_1_"  style="overflow:visible;fill:#FFFFFF;"/>
		<clipPath id="SVGID_2_">
			<use xlink:href="#SVGID_1_"  style="overflow:visible;"/>
		</clipPath>
		<g style="clip-path:url(#SVGID_2_);">
			<rect x="96" y="49.4" style="fill:#FFFFFF;" width="109" height="46.1"/>
		</g>
	</g>
</g>
<g id="guilds">
</g>
</svg>
