<?xml version="1.0" encoding="utf-8"?>
<!-- Generator: Adobe Illustrator 22.1.0, SVG Export Plug-In . SVG Version: 6.00 Build 0)  -->
<svg version="1.1" xmlns="http://www.w3.org/2000/svg" xmlns:xlink="http://www.w3.org/1999/xlink" x="0px" y="0px"
	 viewBox="0 0 300 150" style="enable-background:new 0 0 300 150;" xml:space="preserve">
<g id="Layer_2">
	
		<line style="fill:#FFFFFF;stroke:#2360A5;stroke-width:0;stroke-linecap:round;stroke-linejoin:round;" x1="252.9" y1="75.8" x2="252.9" y2="75.8"/>
	<polyline style="fill:#FFFFFF;stroke:#2360A5;stroke-width:0;stroke-linecap:round;stroke-linejoin:round;" points="175.3,66.2 
		175.3,66.2 175.3,66.2 	"/>
	<path style="fill:#FFFFFF;" d="M35.2,54C17.8,54,17,64.1,17,64.1V82c0,0,1.5,10,18.2,10C49.4,92,53,84.9,53,84.9V72.1H35.2v4.8h8.4
		v8c0,0-0.4,2.3-8.4,2.3c-9.3,0-8.8-5.1-8.8-5.1V64.1c0,0-0.5-5.5,8.8-5.5c9.1,0,8.4,5.5,8.4,5.5v3.6H53v-3.6
		C53,64.1,53.9,54,35.2,54z"/>
	<path style="fill:#FFFFFF;" d="M239.1,65.3c-14.3,0-13.7,7.1-13.7,7.1v12.4c0,0-0.6,7.1,13.7,7.1c14.4,0,13.8-7.1,13.8-7.1v-3.1
		h-7.6l0,3.1c0,0,0,3.1-6.2,3.1c-6.2,0-6.1-3.1-6.2-3.1c0,0,0-12.3,0-12.3c0,0,0.1-3.1,6.5-3.1c6,0,5.9,3.1,5.9,3.1v3.3l7.6,0v-3.3
		C252.9,72.5,253.5,65.3,239.1,65.3z"/>
	<path style="fill:#FFFFFF;" d="M222.7,82.9h-7.6l0,2c0,0,0,3.1-6.2,3.1c-6.2,0-6.2-3.1-6.2-3.1c0,0,0-4.5,0-4.5h20h0v-7.9
		c0,0,0.6-7.2-13.8-7.2c-14.3,0-13.8,7.1-13.8,7.1v12.4c0,0-0.6,7.1,13.8,7.1c14.4,0,13.8-7.1,13.8-7.1V82.9z M208.8,69.4
		c6.3,0,6.2,3.1,6.2,3.1l0,2.8h-12.4l0-2.8C202.7,72.6,202.7,69.4,208.8,69.4z"/>
	<path style="fill:#FFFFFF;" d="M185.3,60.4h-7.6v5.8h-2.4v4.1h2.4v14.9c0,6.6,9,7.3,15.5,6.4c0,0,0-3.7,0-3.7
		c-7.5,1-7.9-2.7-7.9-2.7V70.3h8.3v-4.1h-8.3V60.4z"/>
	<path style="fill:#FFFFFF;" d="M269.6,64.9c-2.1,0-4.1,0.2-6.2,0.6c0,0,0-11.2,0-11.1c0,0.1-7.6,0-7.6,0v36.5h7.6V72.1
		c0,0,0-3.1,6.2-3.1c6.2,0,6.2,3,6.2,3v18.8h7.6V71.3C283.4,71.3,283.1,64.9,269.6,64.9z"/>
	<path style="fill:#FFFFFF;" d="M83.2,82.9h-7.6l0,2c0,0,0,3.1-6.2,3.1c-6.2,0-6.1-3.1-6.2-3.1s0-4.5,0-4.5h20v-7.9
		c0,0,0.6-7.2-13.8-7.2c-14.3,0-13.8,7.1-13.8,7.1v12.4c0,0-0.6,7.1,13.8,7.1s13.8-7.1,13.8-7.1V82.9z M69.4,69.4
		c6.3,0,6.2,3.1,6.2,3.1l0,2.8H63.3l0-2.8C63.3,72.6,63.3,69.4,69.4,69.4z"/>
	<path style="fill:#FFFFFF;" d="M99.5,64.9c-4.6,0-7.7,0.7-9.7,1.7l-4,0h0v24.2h7.6V72.1c0,0,0-3.1,6.2-3.1c6.2,0,6.2,3,6.2,3v18.8
		h7.6V71.3C113.3,71.3,113,64.9,99.5,64.9z"/>
	<path style="fill:#FFFFFF;" d="M159.8,64.9c-4.6,0-7.7,0.7-9.7,1.7l-4,0h0v24.2h7.6V72.1c0,0,0-3.1,6.2-3.1c6.2,0,6.2,3,6.2,3v18.8
		h7.6V71.3C173.6,71.3,173.2,64.9,159.8,64.9z"/>
	<path style="fill:#FFFFFF;" d="M143.5,82.9h-7.6l0,2c0,0,0,3.1-6.2,3.1c-6.2,0-6.1-3.1-6.2-3.1c0,0,0-4.5,0-4.5h20h0h0v-7.9
		c0,0,0.6-7.2-13.8-7.2c-14.3,0-13.7,7.1-13.7,7.1v12.4c0,0-0.6,7.1,13.7,7.1c14.4,0,13.8-7.1,13.8-7.1V82.9z M129.7,69.4
		c6.3,0,6.2,3.1,6.2,3.1l0,2.8h-12.4l0-2.8C123.5,72.6,123.5,69.4,129.7,69.4z"/>
</g>
<g id="guilds">
</g>
</svg>
