<?xml version="1.0" encoding="utf-8"?>
<!-- Generator: Adobe Illustrator 22.1.0, SVG Export Plug-In . SVG Version: 6.00 Build 0)  -->
<svg version="1.1" xmlns="http://www.w3.org/2000/svg" xmlns:xlink="http://www.w3.org/1999/xlink" x="0px" y="0px"
	 viewBox="0 0 300 150" style="enable-background:new 0 0 300 150;" xml:space="preserve">
<g id="Layer_2">
	<path style="fill:#FFFFFF;" d="M137.8,80.3c0,8.1-6.3,14.1-14.1,14.1s-14.1-6-14.1-14.1c0-8.2,6.3-14.1,14.1-14.1
		S137.8,72.2,137.8,80.3z M131.6,80.3c0-5.1-3.7-8.5-7.9-8.5s-7.9,3.5-7.9,8.5c0,5,3.7,8.5,7.9,8.5S131.6,85.3,131.6,80.3z"/>
	<path style="fill:#FFFFFF;" d="M168.3,80.3c0,8.1-6.3,14.1-14.1,14.1c-7.8,0-14.1-6-14.1-14.1c0-8.2,6.3-14.1,14.1-14.1
		C161.9,66.3,168.3,72.2,168.3,80.3z M162.1,80.3c0-5.1-3.7-8.5-7.9-8.5c-4.3,0-7.9,3.5-7.9,8.5c0,5,3.7,8.5,7.9,8.5
		C158.4,88.9,162.1,85.3,162.1,80.3z"/>
	<path style="fill:#FFFFFF;" d="M197.4,67.1v25.3c0,10.4-6.1,14.6-13.4,14.6c-6.8,0-10.9-4.6-12.5-8.3l5.4-2.2c1,2.3,3.3,5,7.1,5
		c4.6,0,7.5-2.9,7.5-8.2v-2h-0.2c-1.4,1.7-4,3.2-7.4,3.2c-7,0-13.5-6.1-13.5-14c0-7.9,6.4-14.1,13.5-14.1c3.4,0,6,1.5,7.4,3.1h0.2
		v-2.3L197.4,67.1L197.4,67.1z M192,80.4c0-5-3.3-8.6-7.5-8.6c-4.3,0-7.8,3.6-7.8,8.6c0,4.9,3.6,8.5,7.8,8.5
		C188.7,88.9,192,85.3,192,80.4z"/>
	<path style="fill:#FFFFFF;" d="M207.1,52.3v41.2h-6V52.3H207.1z"/>
	<path style="fill:#FFFFFF;" d="M230.6,85l4.8,3.2c-1.5,2.3-5.3,6.2-11.7,6.2c-8,0-14-6.2-14-14.1c0-8.4,6-14.1,13.3-14.1
		c7.3,0,10.9,5.8,12,8.9l0.6,1.6l-18.8,7.8c1.4,2.8,3.7,4.3,6.8,4.3C226.8,88.9,229,87.3,230.6,85L230.6,85z M215.8,79.9l12.6-5.2
		c-0.7-1.8-2.8-3-5.2-3C220,71.7,215.7,74.5,215.8,79.9z"/>
	<path style="fill:#FFFFFF;" d="M86.8,76.7v-6h20.1c0.2,1,0.3,2.3,0.3,3.6c0,4.5-1.2,10-5.2,14c-3.8,4-8.7,6.1-15.2,6.1
		c-12,0-22.2-9.8-22.2-21.8s10.1-21.8,22.2-21.8c6.7,0,11.4,2.6,15,6l-4.2,4.2c-2.6-2.4-6-4.3-10.8-4.3c-8.8,0-15.7,7.1-15.7,15.9
		S78,88.4,86.8,88.4c5.7,0,8.9-2.3,11-4.4c1.7-1.7,2.8-4.1,3.2-7.4L86.8,76.7z"/>
</g>
<g id="guilds">
</g>
</svg>
