<?xml version="1.0" encoding="utf-8"?>
<!-- Generator: Adobe Illustrator 22.1.0, SVG Export Plug-In . SVG Version: 6.00 Build 0)  -->
<svg version="1.1" xmlns="http://www.w3.org/2000/svg" xmlns:xlink="http://www.w3.org/1999/xlink" x="0px" y="0px"
	 viewBox="0 0 300 150" style="enable-background:new 0 0 300 150;" xml:space="preserve">
<g id="Layer_2">
	<path id="svg_1" style="fill:#FFFFFF;" d="M45.4,62.2l4.2,0.5c1.9,0.2,2.1,1.8,2.1,2.8v4.8H32.6v-4.8c0-1,0.2-2.6,2.1-2.8l4.2-0.5
		V58H14.1v4.2l4.2,0.5c1.9,0.2,2.1,1.8,2.1,2.8v16c0,1-0.2,2.6-2.1,2.8l-4.2,0.5v4.2h24.7v-4.2l-4.2-0.5c-1.9-0.2-2.1-1.8-2.1-2.8
		v-4.8h19v4.8c0,1-0.2,2.6-2.1,2.8l-4.2,0.5v4.2H70v-4.2l-4.2-0.5c-1.9-0.2-2.1-1.8-2.1-2.8v-16c0-1,0.2-2.6,2.1-2.8l4.2-0.5V58
		H45.3L45.4,62.2L45.4,62.2z"/>
	<path id="svg_2" style="fill:#FFFFFF;" d="M210,58h-30.4v4.2l3.7,0.4c1.3,0.2,2.2,0.7,2.2,2.5v16.3c0,1-0.2,2.6-2.1,2.8l-4.2,0.5
		v4.2H210c11.1,0,20.2-4.4,20.2-15.4S221.1,58,210,58 M207.7,82.9h-10.4V64h10.4c6.1,0,8.2,2.9,8.2,9.5
		C215.9,80,213.8,82.9,207.7,82.9"/>
	<path id="svg_3" style="fill:#FFFFFF;" d="M281.9,84.2c-2-0.2-2.6-1.5-3.2-2.4l-14.2-21.7c-1-1.6-1.8-2.1-3.3-2.1H238v4.2l5.6,0.6
		c0.8,0.1,1.9,1.2,1,2.6L234,82.5c-0.4,0.7-1,1.5-2.2,1.7l-4.2,0.5v4.2h19.7v-4.2l-3.4-0.3c-1.5-0.2-2.3-1.2-1.5-2.4l1.6-2.6h19
		l1.4,2.1c1.3,1.9-0.3,2.7-1.7,2.8l-3.5,0.4v4.2H286v-4.2L281.9,84.2z M247.4,74l5.8-9.5l6.2,9.5H247.4z"/>
	<path id="svg_4" style="fill:#FFFFFF;" d="M157.5,62.2l4.2,0.5c1.9,0.2,2.1,1.8,2.1,2.8v15.4l-16.3-21.5c-0.7-1-1.4-1.3-3.2-1.3
		h-21.2v4.2l4.2,0.5c1.9,0.2,2.1,1.8,2.1,2.8v16c0,1-0.2,2.6-2.1,2.8l-4.2,0.5v4.2h19.8v-4.2l-4.2-0.5c-1.9-0.2-2.1-1.8-2.1-2.8V66
		L153,87.5c0.8,1,1.4,1.3,3.2,1.3h0.2h14.8V65.4c0-1,0.2-2.6,2.1-2.8l4.2-0.5v-4.2h-19.7L157.5,62.2L157.5,62.2z"/>
	<path id="svg_5" style="fill:#FFFFFF;" d="M96.5,56.9c-20.1,0-25.2,8.8-25.2,16.4c0,7.6,5.1,16.5,25.2,16.5s25.2-8.8,25.2-16.4
		C121.7,65.7,116.6,56.9,96.5,56.9 M96.5,84c-7.8,0-11-3.3-11-10.6c0-7.3,3.3-10.6,11-10.6c7.8,0,11,3.3,11,10.6
		C107.5,80.8,104.3,84,96.5,84"/>
</g>
<g id="guilds">
</g>
</svg>
