<?xml version="1.0" encoding="utf-8"?>
<!-- Generator: Adobe Illustrator 22.1.0, SVG Export Plug-In . SVG Version: 6.00 Build 0)  -->
<svg version="1.1" xmlns="http://www.w3.org/2000/svg" xmlns:xlink="http://www.w3.org/1999/xlink" x="0px" y="0px"
	 viewBox="0 0 300 150" style="enable-background:new 0 0 300 150;" xml:space="preserve">
<g id="Layer_2">
	<g>
		<path style="fill:#FFFFFF;" d="M184.7,86.3c-2.5,2.6-5.5,4.7-9.1,6c-3.1,1.2-6.4,1.8-9.7,1.8c-3.3,0-6.7,0-10,0
			c-0.4,0-0.9,0-1.4,0c0-14.1,0-28.1,0-42.2c0.7,0,1.3,0,2,0c3.7,0,7.5-0.1,11.2,0.1c6.6,0.4,12.4,2.8,17,7.7
			c0.1,0.1,0.2,0.1,0.3,0.3c2.3-2.7,5-4.9,8.2-6.4c9.6-4.6,22.7-2.9,30.1,5.5c8.7,9.9,6.6,24.8-4.5,31.9c-9.5,6.1-22.8,5.2-31.3-2.1
			C186.6,88,185.8,87.2,184.7,86.3z M225.3,73.1c0-5.9-2.1-11.2-6.4-15.4c-9.9-9.9-24.6-7.3-31.7,4c-0.2,0.3-0.2,0.9,0,1.3
			c3.7,6.7,3.7,13.4,0,20.1c-0.2,0.3-0.2,0.9-0.1,1.2c4.1,6.7,11.5,11.1,19.6,10.1C217.4,92.9,225.3,83.8,225.3,73.1z M157.7,93.7
			c2.5,0,4.9,0,7.3,0c7.3-0.2,13.2-3.1,17.8-8.8c0.6-0.7,0.5-1.2,0.1-2c-3.3-6.6-3.4-13.2,0-19.7c0.5-0.9,0.4-1.5-0.2-2.2
			c-3.5-4.3-7.9-7.3-13.3-8.2c-3.8-0.6-7.7-0.3-11.5-0.4c-0.1,0-0.1,0.1-0.2,0.2C157.7,66.2,157.7,79.9,157.7,93.7z M185.3,65.4
			c-1.9,5.2-1.9,10.1,0,15.4C187.5,75.5,187.4,70.5,185.3,65.4z"/>
		<path style="fill:#FFFFFF;" d="M54.8,52c1.1,0,2.1,0,3.3,0c0,6.9,0,13.7,0,20.9c9.5-7.2,18.8-14.1,28-21.1
			c0.1,0.1,0.2,0.3,0.3,0.4c-8.3,6.4-16.7,12.7-25.2,19.2C70,78.9,78.7,86.4,87.6,94c-1.9,0.2-3.3,0.1-4.7-1.2
			c-7.5-6.6-15.1-13.1-22.7-19.7c-0.2-0.2-0.4-0.3-0.5-0.4c-1.2,0.5-1.5,1.2-1.5,2.4c0.1,5.8,0,11.6,0,17.5c0,0.4,0,0.9,0,1.4
			c-1.2,0-2.2,0-3.3,0C54.8,80,54.8,66,54.8,52z"/>
		<path style="fill:#FFFFFF;" d="M150.7,94.5c-11.1-12.5-22-24.7-32.9-37c-0.1,0-0.2,0.1-0.3,0.1c0,12.2,0,24.4,0,36.6
			c-0.1,0-0.2,0-0.3,0c0-14.3,0-28.5,0-43c11,12.4,22,24.7,33.2,37.2c0-12.3,0-24.4,0-36.4c0.1,0,0.2,0,0.3,0
			C150.7,66,150.7,80.1,150.7,94.5z"/>
		<path style="fill:#FFFFFF;" d="M89.5,52c8,0,15.9,0,23.8,0c0,0.1,0,0.2,0,0.3c-6.9,0-13.7,0-20.6,0c0,6.7,0,13.2,0,19.9
			c5.9,0,11.7,0,17.5,0c0,0.1,0,0.3,0,0.4c-5.8,0-11.6,0-17.5,0c0,7.1,0,13.9,0,21c6.9,0,13.8,0,20.7,0c0,0.1,0,0.3,0,0.4
			c-7.9,0-15.9,0-23.9,0C89.5,80,89.5,66,89.5,52z"/>
	</g>
</g>
<g id="guilds">
</g>
</svg>
