<?xml version="1.0" encoding="utf-8"?>
<!-- Generator: Adobe Illustrator 22.1.0, SVG Export Plug-In . SVG Version: 6.00 Build 0)  -->
<svg version="1.1" xmlns="http://www.w3.org/2000/svg" xmlns:xlink="http://www.w3.org/1999/xlink" x="0px" y="0px"
	 viewBox="0 0 300 150" style="enable-background:new 0 0 300 150;" xml:space="preserve">
<g id="Layer_2">
	<g>
		<g>
			<g>
				<g>
					<path style="fill:#FFFFFF;" d="M40.9,113.8v-77h53.7v77H40.9z M86.9,106.1V44.6H48.7v61.5H86.9z"/>
				</g>
			</g>
		</g>
		<g>
			<path style="fill:#FFFFFF;" d="M123.1,58.4h-2.7c-3.5-4.9-6.9-9.8-10.4-15.3h0v15.3h-2.9V37h2.7c3.5,4.9,6.9,9.8,10.4,15.3h0.1
				V37h2.9V58.4z"/>
			<path style="fill:#FFFFFF;" d="M130.1,49.9c0.9-2.8,1.7-5.4,2.5-8.7h0.1c0.9,3.3,1.6,5.9,2.4,8.7H130.1z M131.5,37l-7.4,21.4h3.2
				l1.9-5.8h6.5l1.7,5.8h4.1L134.6,37H131.5z"/>
			<path style="fill:#FFFFFF;" d="M144.9,58.4V39.9h-5.6V37h14.9v2.9h-5.6v18.5H144.9z"/>
			<path style="fill:#FFFFFF;" d="M155.3,58.4V37h3.6v21.4H155.3z"/>
			<path style="fill:#FFFFFF;" d="M170.3,55.7c-3.8,0-5.2-4.2-5.2-8.3c0-3.9,1.5-7.7,5.2-7.7c3.6,0,5.2,3.8,5.2,7.7
				C175.5,51.5,174.1,55.7,170.3,55.7z M170.3,58.8c5.6,0,9.1-5,9.1-11.4c0-6-3.9-10.8-9.1-10.8c-5.2,0-9.1,4.8-9.1,10.8
				C161.2,53.8,164.7,58.8,170.3,58.8z"/>
			<path style="fill:#FFFFFF;" d="M197.6,58.4H195c-3.5-4.9-6.9-9.8-10.4-15.3h0v15.3h-2.9V37h2.7c3.5,4.9,6.9,9.8,10.4,15.3h0.1V37
				h2.9V58.4z"/>
			<path style="fill:#FFFFFF;" d="M204.6,49.9c0.9-2.8,1.7-5.4,2.5-8.7h0.1c0.9,3.3,1.6,5.9,2.4,8.7H204.6z M206,37l-7.4,21.4h3.2
				l1.9-5.8h6.4l1.7,5.8h4.1L209.1,37H206z"/>
			<path style="fill:#FFFFFF;" d="M216.9,37h3.6v18.5h7.2v2.9h-10.9V37z"/>
			<g>
				<path style="fill:#FFFFFF;" d="M120.9,76.3v8.8c-2,0.8-4,1.3-6.1,1.3c-6.3,0-10.3-4.9-10.3-11.2c0-5.8,4-10.9,10.4-10.9
					c2,0,4,0.7,5.2,1.6l-1.2,2.5c-1-0.6-2.5-1.1-3.9-1.1c-3.9,0-6.6,3.1-6.6,7.9c0,5.1,3.1,8.1,6.2,8.1c1,0,1.8-0.1,2.6-0.5v-6.6
					H120.9z"/>
				<path style="fill:#FFFFFF;" d="M134,67.5h-6.1v5.9h6v2.9h-6v6.9h7.2v2.9h-10.9V64.7h9.8V67.5z"/>
				<path style="fill:#FFFFFF;" d="M145.3,83.4c-3.8,0-5.2-4.2-5.2-8.3c0-3.9,1.5-7.7,5.2-7.7c3.6,0,5.2,3.8,5.2,7.7
					C150.5,79.2,149.1,83.4,145.3,83.4z M145.3,86.4c5.6,0,9.1-5,9.1-11.4c0-6-3.9-10.8-9.1-10.8c-5.2,0-9.1,4.8-9.1,10.8
					C136.2,81.5,139.7,86.4,145.3,86.4z"/>
				<path style="fill:#FFFFFF;" d="M172,76.3v8.8c-2,0.8-4,1.3-6.1,1.3c-6.3,0-10.3-4.9-10.3-11.2c0-5.8,4-10.9,10.4-10.9
					c2,0,4,0.7,5.2,1.6l-1.2,2.5c-1-0.6-2.5-1.1-3.9-1.1c-3.9,0-6.6,3.1-6.6,7.9c0,5.1,3.1,8.1,6.2,8.1c1,0,1.8-0.1,2.6-0.5v-6.6
					H172z"/>
				<path style="fill:#FFFFFF;" d="M179,67.5h1.6c2.2,0,3.4,1.3,3.4,3.5c0,2.9-1.7,4.2-3.5,4.2c-0.4,0-1.2,0.1-1.5,0.1V67.5z
					 M188.3,86.1l-4.3-8.9c2.4-1.2,3.7-3.8,3.7-6.4c0-4.2-2.5-6.2-6.6-6.2h-5.7v21.4h3.7V78h1.6h0.1l3.5,8.1H188.3z"/>
				<path style="fill:#FFFFFF;" d="M194.4,77.6c0.9-2.8,1.7-5.4,2.5-8.7h0.1c0.9,3.3,1.6,5.9,2.4,8.7H194.4z M195.8,64.7l-7.4,21.4
					h3.2l1.9-5.8h6.5l1.7,5.8h4.1l-6.8-21.4H195.8z"/>
				<path style="fill:#FFFFFF;" d="M210.5,86.1h-3.7V64.7h5.7c4.1,0,6.6,2,6.6,6.2c0,3.6-2.7,7.2-7,7.2h-1.7v-2.7
					c0.2,0,1.2-0.1,1.6-0.1c1.7-0.1,3.5-1.4,3.5-4.2c0-2.2-1.2-3.5-3.4-3.5h-1.7V86.1z"/>
				<path style="fill:#FFFFFF;" d="M236.2,86.1h-3.7V75.8h-7.6v10.3h-3.6V64.7h3.6v8.2h7.6v-8.2h3.7V86.1z"/>
				<path style="fill:#FFFFFF;" d="M239.7,86.1V64.7h3.6v21.4H239.7z"/>
				<path style="fill:#FFFFFF;" d="M259.8,68.6c-0.9-0.6-2.4-1.2-3.8-1.2c-3.7,0-6.5,3.1-6.5,7.9c0,5.1,3,8.1,6.5,8.1
					c1.4,0,2.7-0.5,3.7-1.1l1,2.7c-1.1,0.8-3.1,1.5-4.8,1.5c-6.3,0-10.3-4.9-10.3-11.2c0-5.8,3.9-10.9,10.3-10.9
					c1.9,0,3.7,0.8,4.9,1.6L259.8,68.6z"/>
			</g>
		</g>
		<g>
			<path style="fill:#FFFFFF;" d="M118.5,96.4c-0.9-0.5-2.3-1.2-3.7-1.2c-3.7,0-6.4,3.1-6.4,7.9c0,5.1,3,8,6.5,8
				c1.4,0,2.7-0.5,3.7-1.1l1,2.7c-1.1,0.8-3,1.5-4.8,1.5c-6.3,0-10.2-4.9-10.2-11.2c0-5.8,3.9-10.9,10.3-10.9c1.9,0,3.7,0.8,4.9,1.6
				L118.5,96.4z"/>
			<path style="fill:#FFFFFF;" d="M135.7,113.8H132v-10.3h-7.6v10.3h-3.6V92.5h3.6v8.2h7.6v-8.1h3.7V113.8z"/>
			<path style="fill:#FFFFFF;" d="M143,105.4c0.9-2.8,1.7-5.4,2.5-8.7h0.1c0.9,3.3,1.6,5.9,2.4,8.7H143z M144.4,92.5l-7.4,21.3h3.2
				l1.9-5.8h6.4l1.7,5.8h4.1l-6.8-21.3H144.4z"/>
			<path style="fill:#FFFFFF;" d="M171.5,113.8h-2.7c-3.5-4.9-6.9-9.8-10.4-15.3h0v15.3h-2.9V92.5h2.7c3.5,4.9,6.9,9.7,10.3,15.2
				h0.1V92.5h2.9V113.8z"/>
			<path style="fill:#FFFFFF;" d="M190.9,113.8h-2.7c-3.5-4.9-6.9-9.8-10.4-15.3h0v15.3H175V92.5h2.7c3.5,4.9,6.9,9.7,10.3,15.2h0.1
				V92.5h2.9V113.8z"/>
			<path style="fill:#FFFFFF;" d="M203.6,95.4h-6.1v5.9h6v2.9h-6v6.9h7.2v2.9h-10.9V92.5h9.8V95.4z"/>
			<path style="fill:#FFFFFF;" d="M206.7,92.5h3.6V111h7.2v2.9h-10.9V92.5z"/>
		</g>
	</g>
</g>
<g id="guilds">
</g>
</svg>
