<?xml version="1.0" encoding="utf-8"?>
<!-- Generator: Adobe Illustrator 22.1.0, SVG Export Plug-In . SVG Version: 6.00 Build 0)  -->
<svg version="1.1" xmlns="http://www.w3.org/2000/svg" xmlns:xlink="http://www.w3.org/1999/xlink" x="0px" y="0px"
	 viewBox="0 0 300 150" style="enable-background:new 0 0 300 150;" xml:space="preserve">
<g id="Layer_2">
	<path style="fill:#FFFFFF;" d="M130.4,54.3h-7.1v6.3h-2.9v6.1h2.9v11.8c0,5.8,3,7.5,7.3,7.5c2.4,0,4.1-0.5,5.6-1.4v-5.7
		c-1,0.6-2.2,0.9-3.5,0.9c-1.6,0-2.2-0.8-2.2-2.4V66.7h5.8v-6.1h-5.8V54.3z"/>
	<polygon style="fill:#FFFFFF;" points="83.9,73 68.6,52.7 62,52.7 62,85.6 69.1,85.6 69.1,64.8 84.9,85.6 90.9,85.6 90.9,52.7 
		83.9,52.7 	"/>
	<path style="fill:#FFFFFF;" d="M106.8,60.1c-7.3,0-12.4,5.9-12.4,13v0.1c0,7.6,5.6,12.9,13.1,12.9c4.5,0,7.9-1.8,10.2-4.7l-4-3.6
		c-2,1.8-3.7,2.6-6.1,2.6c-3.2,0-5.4-1.7-6.1-4.9h17.4c0.1-0.7,0.1-1.4,0.1-1.9C118.9,66.6,115.1,60.1,106.8,60.1z M101.3,71.1
		c0.6-3.2,2.5-5.3,5.4-5.3c3,0,4.8,2.1,5.3,5.3H101.3z"/>
	<path style="fill:#FFFFFF;" d="M151.6,52.7L138,85.6h7.3l3-7.3h12.9l3,7.3h7.4l-13.6-32.9H151.6z M150.4,71.9l4.4-10.6l4.3,10.6
		H150.4z"/>
	<polygon style="fill:#FFFFFF;" points="237.2,60.6 235.8,64.8 234.3,60.6 233,60.6 233,66.2 233.8,66.2 233.8,61.6 235.5,66.2 
		236,66.2 237.7,61.6 237.7,66.2 238.5,66.2 238.5,60.6 	"/>
	<polygon style="fill:#FFFFFF;" points="228,61.4 229.5,61.4 229.5,66.2 230.4,66.2 230.4,61.4 232,61.4 232,60.6 228,60.6 	"/>
	<path style="fill:#FFFFFF;" d="M188.3,60.1c-3.7,0-6.1,1.7-7.8,4v-3.6h-7V93h7V82.3c1.7,2,4,3.7,7.8,3.7c5.9,0,11.3-4.5,11.3-12.9
		V73C199.6,64.7,194.1,60.1,188.3,60.1z M192.5,73.1c0,4.2-2.8,6.9-6.1,6.9c-3.3,0-6-2.7-6-6.9V73c0-4.1,2.7-6.9,6-6.9
		c3.3,0,6.1,2.7,6.1,6.9V73.1z"/>
	<path style="fill:#FFFFFF;" d="M217.4,60.1c-3.7,0-6,1.7-7.7,4v-3.6h-7.1V93h7.1V82.3c1.7,2,4,3.7,7.7,3.7
		c5.9,0,11.3-4.5,11.3-12.9V73C228.7,64.7,223.2,60.1,217.4,60.1z M221.7,73.1c0,4.2-2.8,6.9-6.1,6.9c-3.3,0-6.1-2.7-6.1-6.9V73
		c0-4.1,2.8-6.9,6.1-6.9c3.3,0,6.1,2.7,6.1,6.9V73.1z"/>
</g>
<g id="guilds">
</g>
</svg>
