<?xml version="1.0" encoding="utf-8"?>
<!-- Generator: Adobe Illustrator 22.1.0, SVG Export Plug-In . SVG Version: 6.00 Build 0)  -->
<svg version="1.1" xmlns="http://www.w3.org/2000/svg" xmlns:xlink="http://www.w3.org/1999/xlink" x="0px" y="0px"
	 viewBox="0 0 300 150" style="enable-background:new 0 0 300 150;" xml:space="preserve">
<g id="Layer_2">
	<g id="layer1" transform="translate(-702.6538,-712.5837)">
		<g id="g16337">
			<path id="path16197" style="fill:#FFFFFF;" d="M830.6,791.3h16.9l-8.9-14.4l-16.4,26h-7.5l20-31.3c0.9-1.3,2.3-2,3.9-2
				c1.6,0,3,0.7,3.8,2l20.1,31.3H855l-3.5-5.8h-17.1L830.6,791.3z M908.3,797.1V770h-6.3v29.8c0,0.8,0.3,1.6,0.9,2.2
				c0.6,0.6,1.4,0.9,2.3,0.9h28.9l3.7-5.8H908.3z M803.3,792.3c6.2,0,11.2-5,11.2-11.1c0-6.2-5-11.2-11.2-11.2h-27.7v33h6.3v-27.2
				h21c2.9,0,5.3,2.4,5.3,5.3c0,2.9-2.4,5.3-5.3,5.3l-17.9,0L804,803h9.2l-12.7-10.7H803.3z M736.6,803c-9.1,0-16.5-7.4-16.5-16.5
				c0-9.1,7.4-16.5,16.5-16.5h19.2c9.1,0,16.5,7.4,16.5,16.5c0,9.1-7.4,16.5-16.5,16.5H736.6z M755.3,797.1
				c5.9,0,10.7-4.8,10.7-10.7c0-5.9-4.8-10.7-10.7-10.7H737c-5.9,0-10.7,4.8-10.7,10.7c0,5.9,4.8,10.7,10.7,10.7H755.3z M875.7,803
				c-9.1,0-16.5-7.4-16.5-16.5c0-9.1,7.4-16.5,16.5-16.5h22.8l-3.7,5.8h-18.6c-5.9,0-10.7,4.8-10.7,10.7c0,5.9,4.8,10.7,10.7,10.7
				H899l-3.7,5.8H875.7z M953.3,797.1c-4.9,0-9-3.3-10.3-7.8h27.1l3.7-5.8H943c1.3-4.5,5.4-7.8,10.3-7.8h18.6l3.8-5.8h-22.8
				c-9.1,0-16.5,7.4-16.5,16.5c0,9.1,7.4,16.5,16.5,16.5h19.6l3.7-5.8H953.3"/>
			<path id="path16199" style="fill:#FFFFFF;" d="M979,773.5c0-1.6,1.3-2.9,2.9-2.9c1.6,0,2.9,1.3,2.9,2.9c0,1.6-1.3,2.9-2.9,2.9
				C980.3,776.4,979,775.1,979,773.5z M981.9,777.2c2.1,0,3.7-1.7,3.7-3.7c0-2.1-1.7-3.7-3.7-3.7c-2,0-3.7,1.7-3.7,3.7
				C978.3,775.6,979.9,777.2,981.9,777.2z M981.6,771.3c0.6,0,0.8,0,1.1,0.1c0.7,0.2,0.8,0.9,0.8,1.2c0,0.1,0,0.2-0.1,0.3
				c0,0.2-0.1,0.5-0.5,0.7c-0.1,0-0.1,0.1-0.2,0.1l0.9,1.7h-0.9l-0.8-1.6h-0.6v1.6h-0.8v-4.2H981.6z M981.9,773.2
				c0.3,0,0.5,0,0.7-0.3c0.1-0.1,0.1-0.2,0.1-0.4c0-0.2-0.1-0.4-0.3-0.5c-0.2-0.1-0.4-0.1-0.8-0.1h-0.2v1.2H981.9"/>
		</g>
	</g>
</g>
<g id="guilds">
</g>
</svg>
