<?xml version="1.0" encoding="utf-8"?>
<!-- Generator: Adobe Illustrator 22.1.0, SVG Export Plug-In . SVG Version: 6.00 Build 0)  -->
<svg version="1.1" xmlns="http://www.w3.org/2000/svg" xmlns:xlink="http://www.w3.org/1999/xlink" x="0px" y="0px"
	 viewBox="0 0 300 150" style="enable-background:new 0 0 300 150;" xml:space="preserve">
<g id="Layer_2">
	<path style="fill:#FFFFFF;" d="M97.2,83.8c5.8,0,6.4,2.9,6.8,6h2.8v-9H82v2.9h2.6c1.2,0,1.8,0.5,1.8,1.5v16.9c0,1.1-0.6,1.9-2,1.9
		H82v2.9h14.5v-2.9h-2c-1.8,0-2.5-0.6-2.5-2V95h1.6c2.5,0,3.5,1.1,3.5,3.9v0.9h2.8V87.6h-2.8v0.5c0,2-0.7,3.9-3.3,3.9H92v-8.3H97.2z
		"/>
	<polygon style="fill:#FFFFFF;" points="182.2,83 182.2,83 182.2,83 	"/>
	<path style="fill:#FFFFFF;" d="M206.4,80c-8.6,0-14.3,6-14.3,13.9c0,7.9,5.7,13.9,14.3,13.9c8.6,0,14.3-6.1,14.3-13.9
		C220.7,86.1,215,80,206.4,80z M206.4,104.8c-6.2,0-8.1-5.2-8.1-10.8c0-5.7,1.8-10.8,8.1-10.8c6.2,0,8.1,5.2,8.1,10.8
		C214.5,99.6,212.6,104.8,206.4,104.8z"/>
	<path style="fill:#FFFFFF;" d="M157.7,100.9v0.7c0,1.8-0.5,2.5-1.4,2.5c-1,0-1.5-0.6-1.5-3.3v-1.5c0-4-2.3-5.2-5.1-5.4v-0.1
		c2.4-0.1,7.4-1.1,7.4-6.2c0-4.1-2.7-6.8-8.4-6.8h-17.2v2.9h2.8c1.2,0,1.6,0.4,1.6,1.4v17.5c0,1-0.5,1.4-1.6,1.4h-1.1
		c-2.1,0-3.4-0.3-4.2-2.1l-8.6-21.2h-5L107,102c-0.7,1.8-2.1,2.1-4.2,2.1v2.9h12.3v-2.9h-2.8c-0.8,0-1.2-0.2-1.2-0.7
		c0-0.4,0.1-0.7,0.2-1.1c0.2-0.5,1.3-3.6,1.3-3.6h9.4c0,0,1.2,3.4,1.4,3.7c0.2,0.4,0.2,0.8,0.2,1.1c0,0.5-0.3,0.7-1.1,0.7h-2.9v2.9
		h26.2v-2.9H143c-1.1,0-1.6-0.4-1.6-1.4v-7.9h2.1c4.4,0,6.3,1.8,6.3,6.3v1.4c0,3.6,1.3,5.4,5.1,5.4c3.3,0,5.4-1.7,5.4-6.3v-0.7
		H157.7z M113.8,95.7l3.5-9.6h0.1l3.5,9.6H113.8z M146.3,91.9h-4.9v-8.1h4.9c3.7,0,5.3,1.7,5.3,4C151.6,90.3,149.7,91.9,146.3,91.9z
		"/>
	<path style="fill:#FFFFFF;" d="M177.4,96h1.8c1.3,0,2.1,0.6,2.1,1.9v1.5c0,3-1.8,5.1-5.9,5.1c-5,0-7.6-4.5-7.6-10.6
		c0-5.9,2.5-10.5,7.4-10.5c5.1,0,6.8,4.7,7.4,6.3h3.3v-9h-2.8l-1,2.2l0,0h0v0c-0.6-0.5-3-2.9-7.9-2.9c-7.8,0-12.6,5.9-12.6,13.9
		c0,8.1,5,13.9,12.6,13.9c4.9,0,7.6-2.3,8.2-2.8l1.5,2h2.7V98c0-1.5,0.6-2,2.1-2h0.7v-2.9h-12.1V96z"/>
	<path style="fill:#FFFFFF;" d="M93,66.2l4.6-13.6h0.1l4.1,13.6h5.4l7.2-20.9c0.7-2,1.6-2.4,3.4-2.4h0.8c1.8,0,2.6,0.5,2.6,2.2v15.4
		c0,2.4-0.7,2.8-2.1,2.8h-2.2v2.9h26v-9.9h-2.9c-0.4,4.6-1.7,6.9-5.3,6.9h-7.9V54h1.9c2.4,0,3.5,1.2,3.5,4.4V59h2.8V46.2h-2.8v0.5
		c0,3.2-1.1,4.4-3.5,4.4h-1.9v-8.2h7c5.3,0,5.6,2.3,6.2,6l3,0v-9h-36v2.9h1.9c1.4,0,1.7,0.6,1.7,1.2c0,0.5-0.1,0.9-0.3,1.4l-5,14.3
		h-0.1l-4.3-14.6c-0.1-0.4-0.3-0.9-0.3-1.3c0-0.5,0.3-0.9,1.1-0.9h2.1v-2.9H91.9v2.9h0.9c1.1,0,1.9,0.3,2.3,1.5l0.7,1.9L91.1,60
		h-0.1l-5-14.6c-0.2-0.5-0.4-1-0.4-1.4c0-0.5,0.4-1,1.2-1h1.7v-2.9H77.2v2.9h0.5c1.5,0,2.1,0.3,2.4,1.4l7.4,21.9H93z"/>
	<path style="fill:#FFFFFF;" d="M212.4,50.4c-0.9-0.2-1.8-0.4-2.7-0.6c-3.3-0.7-5.4-1.5-5.4-3.9c0-2,2.2-3.4,5.4-3.4
		c4.8,0,6.7,3.1,7.7,6.4h3v-9h-2.1l-1.3,2c-0.2-0.2-2.7-2.8-7.4-2.8c-4.9,0-9.9,2.5-9.9,7.9c0,4.9,3.9,7.1,8.4,8.1
		c1.5,0.3,2.4,0.5,3.7,0.8c3.4,0.7,5.6,1.7,5.6,4.1c0,1.8-1.9,3.7-5.6,3.7c-5.2,0-8.2-2.9-8.9-7.3h-3v9.9h2.7l0.9-2.4
		c0.6,0.6,3.2,3.1,8,3.1c6.1,0,10.7-2.7,10.7-8.1C222,53.7,217.7,51.4,212.4,50.4z"/>
	<path style="fill:#FFFFFF;" d="M170,56.3h-3c-0.4,4.5-1.2,6.9-5.3,6.9h-6V44.7c0-1.4,0.6-1.8,2.3-1.8h2.2v-2.9h-14.5v2.9h2.3
		c1.6,0,2.1,0.5,2.1,1.7v16.9c0,1.4-0.8,1.8-1.9,1.8h-2.5v2.9H170V56.3z"/>
	<path style="fill:#FFFFFF;" d="M197,66.2v-9.9h-3c-0.4,4.5-1.2,6.9-5.3,6.9h-6V44.7c0-1.4,0.6-1.8,2.3-1.8h2.2v-2.9h-14.5v2.9h2.3
		c1.6,0,2.1,0.5,2.1,1.7v16.9c0,1.4-0.8,1.8-1.9,1.8h-2.6v2.9H197L197,66.2z"/>
</g>
<g id="guilds">
</g>
</svg>
